<svg width="112" height="112" viewBox="0 0 112 112" fill="none" xmlns="http://www.w3.org/2000/svg">
<g clip-path="url(#clip0_42_23)">
<path d="M24 0H88C101.255 0 112 10.7452 112 24V88C112 101.255 101.255 112 88 112H24C10.7452 112 0 101.255 0 88V24C0 10.7452 10.7452 0 24 0Z" fill="url(#paint0_linear_42_23)"/>
<path d="M56 22L83 34V52C83 68.5 71.8 83.3 56 88C40.2 83.3 29 68.5 29 52V34L56 22Z" fill="white" fill-opacity="0.24" stroke="white" stroke-width="6" stroke-linejoin="round"/>
<path d="M45 52V45C45 38.9 49.9 34 56 34C62.1 34 67 38.9 67 45V52" stroke="white" stroke-width="5" stroke-linecap="round"/>
<rect x="41" y="52" width="30" height="23" rx="6" stroke="white" stroke-width="5"/>
<circle cx="56" cy="63" r="3.5" fill="white"/>
<path d="M56 66.5V70" stroke="white" stroke-width="4" stroke-linecap="round"/>
</g>
<defs>
<linearGradient id="paint0_linear_42_23" x1="0" y1="0" x2="112" y2="112" gradientUnits="userSpaceOnUse">
<stop stop-color="#1A2347"/>
<stop offset="0.35" stop-color="#2A417F"/>
<stop offset="0.7" stop-color="#5C79EA"/>
<stop offset="1" stop-color="#DEE6FF"/>
</linearGradient>
<clipPath id="clip0_42_23">
<rect width="112" height="112" fill="white"/>
</clipPath>
</defs>
</svg>