<svg width="112" height="112" viewBox="0 0 112 112" fill="none" xmlns="http://www.w3.org/2000/svg">
<g clip-path="url(#clip0_31_11)">
<path d="M24 0H88C101.255 0 112 10.7452 112 24V88C112 101.255 101.255 112 88 112H24C10.7452 112 0 101.255 0 88V24C0 10.7452 10.7452 0 24 0Z" fill="url(#paint0_linear_31_11)"/>
<path d="M35 73L44 82L73 53L64 44L35 73Z" fill="white" fill-opacity="0.25" stroke="white" stroke-width="6" stroke-linejoin="round"/>
<path d="M68 41L73 36L76 39L71 44" stroke="white" stroke-width="6" stroke-linecap="round" stroke-linejoin="round"/>
<path d="M40 68L47 75" stroke="white" stroke-width="6" stroke-linecap="round"/>
<path d="M30 32H52" stroke="white" stroke-width="5" stroke-linecap="round"/>
<path d="M30 44H44" stroke="white" stroke-width="5" stroke-linecap="round"/>
<path d="M58 82H82" stroke="white" stroke-width="5" stroke-linecap="round"/>
</g>
<defs>
<linearGradient id="paint0_linear_31_11" x1="0" y1="0" x2="112" y2="112" gradientUnits="userSpaceOnUse">
<stop stop-color="#0A2A3E"/>
<stop offset="0.35" stop-color="#15507A"/>
<stop offset="0.7" stop-color="#2B77AE"/>
<stop offset="1" stop-color="#DCEEF9"/>
</linearGradient>
<clipPath id="clip0_31_11">
<rect width="112" height="112" fill="white"/>
</clipPath>
</defs>
</svg>
