<svg width="112" height="112" viewBox="0 0 112 112" fill="none" xmlns="http://www.w3.org/2000/svg">
<g clip-path="url(#clip0_42_11)">
<path d="M24 0H88C101.255 0 112 10.7452 112 24V88C112 101.255 101.255 112 88 112H24C10.7452 112 0 101.255 0 88V24C0 10.7452 10.7452 0 24 0Z" fill="url(#paint0_linear_42_11)"/>
<path d="M32 30H80" stroke="white" stroke-width="6" stroke-linecap="round"/>
<path d="M32 56H80" stroke="white" stroke-width="6" stroke-linecap="round"/>
<path d="M32 82H80" stroke="white" stroke-width="6" stroke-linecap="round"/>
<circle cx="44" cy="30" r="7" fill="white" fill-opacity="0.95"/>
<circle cx="68" cy="56" r="7" fill="white" fill-opacity="0.85"/>
<circle cx="52" cy="82" r="7" fill="white" fill-opacity="0.75"/>
<path d="M44 37V49" stroke="white" stroke-width="4" stroke-linecap="round"/>
<path d="M68 63V75" stroke="white" stroke-width="4" stroke-linecap="round"/>
<path d="M52 89V98" stroke="white" stroke-width="4" stroke-linecap="round"/>
</g>
<defs>
<linearGradient id="paint0_linear_42_11" x1="0" y1="0" x2="112" y2="112" gradientUnits="userSpaceOnUse">
<stop stop-color="#0B2A27"/>
<stop offset="0.32" stop-color="#126A63"/>
<stop offset="0.68" stop-color="#1FA89A"/>
<stop offset="1" stop-color="#D9F3EE"/>
</linearGradient>
<clipPath id="clip0_42_11">
<rect width="112" height="112" fill="white"/>
</clipPath>
</defs>
</svg>