<svg width="112" height="112" viewBox="0 0 112 112" fill="none" xmlns="http://www.w3.org/2000/svg">
<g clip-path="url(#clip0_77_140)">
<mask id="mask0_77_140" style="mask-type:luminance" maskUnits="userSpaceOnUse" x="0" y="0" width="112" height="112">
<path d="M112 0H0V112H112V0Z" fill="white"/>
</mask>
<g mask="url(#mask0_77_140)">
<path d="M24 0H88C101.255 0 112 10.7452 112 24V88C112 101.255 101.255 112 88 112H24C10.7452 112 0 101.255 0 88V24C0 10.7452 10.7452 0 24 0Z" fill="url(#paint0_linear_77_140)"/>
<path d="M56 94C28 76 24 60 24 44V38C24 34 26 32.5 30 32C30 32 37.9232 31.0384 43 28.5C48.0768 25.9616 56 19 56 19C56 19 63.2856 25.8763 69 28.5C73.778 30.6938 82 32 82 32C86 32.5 88 34 88 38V44C88 60 84 76 56 94Z" fill="white" fill-opacity="0.2" stroke="white" stroke-width="6" stroke-linecap="round" stroke-linejoin="round"/>
<path d="M44 49C46.7614 49 49 46.7614 49 44C49 41.2386 46.7614 39 44 39C41.2386 39 39 41.2386 39 44C39 46.7614 41.2386 49 44 49Z" fill="white"/>
<path d="M55 44H76" stroke="white" stroke-width="5" stroke-linecap="round"/>
<path d="M44 61C46.7614 61 49 58.7614 49 56C49 53.2386 46.7614 51 44 51C41.2386 51 39 53.2386 39 56C39 58.7614 41.2386 61 44 61Z" fill="white"/>
<path d="M55 56H74" stroke="white" stroke-width="5" stroke-linecap="round"/>
<path d="M44 73C46.7614 73 49 70.7614 49 68C49 65.2386 46.7614 63 44 63C41.2386 63 39 65.2386 39 68C39 70.7614 41.2386 73 44 73Z" fill="white"/>
<path d="M55 68H70" stroke="white" stroke-width="5" stroke-linecap="round"/>
</g>
</g>
<defs>
<linearGradient id="paint0_linear_77_140" x1="0" y1="0" x2="112" y2="112" gradientUnits="userSpaceOnUse">
<stop stop-color="#150F3E"/>
<stop offset="0.25" stop-color="#3321AB"/>
<stop offset="0.6" stop-color="#5823AE"/>
<stop offset="1" stop-color="#7D29AE"/>
</linearGradient>
<clipPath id="clip0_77_140">
<rect width="112" height="112" fill="white"/>
</clipPath>
</defs>
</svg>
