<svg width="112" height="112" viewBox="0 0 112 112" fill="none" xmlns="http://www.w3.org/2000/svg">
<g clip-path="url(#clip0_77_178)">
<mask id="mask0_77_178" style="mask-type:luminance" maskUnits="userSpaceOnUse" x="0" y="0" width="112" height="112">
<path d="M112 0H0V112H112V0Z" fill="white"/>
</mask>
<g mask="url(#mask0_77_178)">
<path d="M24 0H88C101.255 0 112 10.7452 112 24V88C112 101.255 101.255 112 88 112H24C10.7452 112 0 101.255 0 88V24C0 10.7452 10.7452 0 24 0Z" fill="url(#paint0_linear_77_178)"/>
<path d="M40.5109 88C33.92 85.6336 28.2206 81.2899 24.1915 75.5623C20.1623 69.8348 18 63.0028 18 56C18 48.9972 20.1623 42.1652 24.1915 36.4377C28.2206 30.7101 33.92 26.3664 40.5109 24" stroke="white" stroke-width="8" stroke-linecap="round"/>
<path d="M56 24L41 16V32L56 24Z" fill="white"/>
<path d="M71.49 24C78.0809 26.3664 83.7803 30.7101 87.8094 36.4377C91.8386 42.1652 94.0009 48.9972 94.0009 56C94.0009 63.0028 91.8386 69.8348 87.8094 75.5623C83.7803 81.2899 78.0809 85.6336 71.49 88" stroke="white" stroke-width="8" stroke-linecap="round"/>
<path d="M56 88L71 80V96L56 88Z" fill="white"/>
<path d="M51.2946 41.275C48.1335 39.7658 43.7152 39.0266 37.7998 39.0003C37.2419 38.9927 36.695 39.1554 36.2319 39.4666C35.8518 39.7235 35.5407 40.0698 35.3259 40.4752C35.1111 40.8805 34.9992 41.3324 35 41.7911V66.8209C35 68.5129 36.2039 69.7893 37.7998 69.7893C44.0179 69.7893 50.2552 70.3702 53.9912 73.9012C54.0423 73.9497 54.1065 73.9821 54.1759 73.9945C54.2453 74.0068 54.3168 73.9984 54.3815 73.9705C54.4461 73.9425 54.5012 73.8962 54.5398 73.8372C54.5783 73.7782 54.5987 73.7092 54.5984 73.6387V44.1463C54.5985 43.9473 54.5559 43.7506 54.4735 43.5695C54.391 43.3884 54.2707 43.2271 54.1207 43.0964C53.2649 42.3649 52.3143 41.7522 51.2946 41.275ZM75.7646 39.464C75.3013 39.1536 74.7544 38.9918 74.1967 39.0003C68.2813 39.0266 63.863 39.7623 60.7019 41.275C59.6822 41.7513 58.7314 42.3628 57.875 43.0929C57.7252 43.2238 57.6051 43.3851 57.5229 43.5662C57.4406 43.7473 57.3981 43.9439 57.3981 44.1428V73.637C57.3981 73.7047 57.418 73.7709 57.4555 73.8273C57.493 73.8837 57.5462 73.9278 57.6087 73.9541C57.6711 73.9804 57.7399 73.9876 57.8064 73.9749C57.8729 73.9622 57.9342 73.9302 57.9826 73.8828C60.2285 71.6519 64.1701 69.7867 74.2002 69.7876C74.9428 69.7876 75.6549 69.4926 76.18 68.9676C76.705 68.4426 77 67.7305 77 66.988V41.792C77.001 41.3324 76.8888 40.8796 76.6734 40.4735C76.4579 40.0675 76.1458 39.7208 75.7646 39.464Z" fill="white"/>
</g>
</g>
<defs>
<linearGradient id="paint0_linear_77_178" x1="0" y1="0" x2="112" y2="112" gradientUnits="userSpaceOnUse">
<stop stop-color="#3F0D2D"/>
<stop offset="0.25" stop-color="#B81E80"/>
<stop offset="0.6" stop-color="#D01A66"/>
<stop offset="1" stop-color="#E61942"/>
</linearGradient>
<clipPath id="clip0_77_178">
<rect width="112" height="112" fill="white"/>
</clipPath>
</defs>
</svg>
