<svg width="112" height="112" viewBox="0 0 112 112" fill="none" xmlns="http://www.w3.org/2000/svg">
<g clip-path="url(#clip0_77_153)">
<mask id="mask0_77_153" style="mask-type:luminance" maskUnits="userSpaceOnUse" x="0" y="0" width="112" height="112">
<path d="M112 0H0V112H112V0Z" fill="white"/>
</mask>
<g mask="url(#mask0_77_153)">
<path d="M24 0H88C101.255 0 112 10.7452 112 24V88C112 101.255 101.255 112 88 112H24C10.7452 112 0 101.255 0 88V24C0 10.7452 10.7452 0 24 0Z" fill="url(#paint0_linear_77_153)"/>
<path d="M22 40V22H40" stroke="white" stroke-width="7" stroke-linecap="round" stroke-linejoin="round"/>
<path d="M72 22H90V40" stroke="white" stroke-width="7" stroke-linecap="round" stroke-linejoin="round"/>
<path d="M90 72V90H72" stroke="white" stroke-width="7" stroke-linecap="round" stroke-linejoin="round"/>
<path d="M40 90H22V72" stroke="white" stroke-width="7" stroke-linecap="round" stroke-linejoin="round"/>
<path d="M44.3077 38H67.6923C72.5641 38 75 40.4359 75 45.3077V58.4615C75 63.3333 72.5641 65.7692 67.6923 65.7692H53.0769L44.3077 74.5385L47.2308 65.7692H44.3077C39.4359 65.7692 37 63.3333 37 58.4615V45.3077C37 40.4359 39.4359 38 44.3077 38Z" fill="white" fill-opacity="0.2" stroke="white" stroke-width="6" stroke-linecap="round" stroke-linejoin="round"/>
<path d="M44.3076 48.6923H67.6922" stroke="white" stroke-width="3" stroke-linecap="round"/>
<path d="M44.3076 54.7308H58.9229" stroke="white" stroke-width="3" stroke-linecap="round"/>
</g>
</g>
<defs>
<linearGradient id="paint0_linear_77_153" x1="0" y1="0" x2="112" y2="112" gradientUnits="userSpaceOnUse">
<stop stop-color="#073145"/>
<stop offset="0.25" stop-color="#0C9FE9"/>
<stop offset="0.6" stop-color="#0F73D6"/>
<stop offset="1" stop-color="#154FC1"/>
</linearGradient>
<clipPath id="clip0_77_153">
<rect width="112" height="112" fill="white"/>
</clipPath>
</defs>
</svg>
