<svg width="112" height="112" viewBox="0 0 112 112" fill="none" xmlns="http://www.w3.org/2000/svg">
<g clip-path="url(#clip0_77_189)">
<mask id="mask0_77_189" style="mask-type:luminance" maskUnits="userSpaceOnUse" x="0" y="0" width="112" height="112">
<path d="M112 0H0V112H112V0Z" fill="white"/>
</mask>
<g mask="url(#mask0_77_189)">
<path d="M24 0H88C101.255 0 112 10.7452 112 24V88C112 101.255 101.255 112 88 112H24C10.7452 112 0 101.255 0 88V24C0 10.7452 10.7452 0 24 0Z" fill="url(#paint0_linear_77_189)"/>
<path d="M13 30C15.2091 30 17 28.2091 17 26C17 23.7909 15.2091 22 13 22C10.7909 22 9 23.7909 9 26C9 28.2091 10.7909 30 13 30Z" fill="white" fill-opacity="0.28"/>
<path d="M56 14C58.2091 14 60 12.2091 60 10C60 7.79086 58.2091 6 56 6C53.7909 6 52 7.79086 52 10C52 12.2091 53.7909 14 56 14Z" fill="white" fill-opacity="0.28"/>
<path d="M99 30C101.209 30 103 28.2091 103 26C103 23.7909 101.209 22 99 22C96.7909 22 95 23.7909 95 26C95 28.2091 96.7909 30 99 30Z" fill="white" fill-opacity="0.28"/>
<path d="M34 24.5C37.0376 24.5 39.5 22.0376 39.5 19C39.5 15.9624 37.0376 13.5 34 13.5C30.9624 13.5 28.5 15.9624 28.5 19C28.5 22.0376 30.9624 24.5 34 24.5Z" fill="white"/>
<path d="M78 24.5C81.0376 24.5 83.5 22.0376 83.5 19C83.5 15.9624 81.0376 13.5 78 13.5C74.9624 13.5 72.5 15.9624 72.5 19C72.5 22.0376 74.9624 24.5 78 24.5Z" fill="white"/>
<mask id="mask1_77_189" style="mask-type:luminance" maskUnits="userSpaceOnUse" x="22" y="32" width="68" height="69">
<path d="M22 100.5H90V32.5H22V100.5Z" fill="white"/>
</mask>
<g mask="url(#mask1_77_189)">
<path d="M44 36H25V51H44V36Z" fill="white" fill-opacity="0.28"/>
<path d="M87 36H68V51H87V36Z" fill="white" fill-opacity="0.28"/>
<path d="M26.25 49.5H43.25V36.75H26.25V49.5ZM68.75 49.5H85.75V36.75H68.75V49.5ZM90 66.5C90 75.5174 86.4179 84.1654 80.0416 90.5416C73.6654 96.9179 65.0174 100.5 56 100.5C46.9826 100.5 38.3346 96.9179 31.9584 90.5416C25.5821 84.1654 22 75.5174 22 66.5V32.5H47.5V66.5C47.5 68.7543 48.3955 70.9163 49.9896 72.5104C51.5837 74.1045 53.7457 75 56 75C58.2543 75 60.4163 74.1045 62.0104 72.5104C63.6045 70.9163 64.5 68.7543 64.5 66.5V32.5H90V66.5Z" fill="white"/>
</g>
</g>
</g>
<defs>
<linearGradient id="paint0_linear_77_189" x1="0" y1="0" x2="112" y2="112" gradientUnits="userSpaceOnUse">
<stop stop-color="#420B16"/>
<stop offset="0.25" stop-color="#E61942"/>
<stop offset="0.6" stop-color="#E93465"/>
<stop offset="1" stop-color="#EA5385"/>
</linearGradient>
<clipPath id="clip0_77_189">
<rect width="112" height="112" fill="white"/>
</clipPath>
</defs>
</svg>
