<svg width="112" height="112" viewBox="0 0 112 112" fill="none" xmlns="http://www.w3.org/2000/svg">
<g clip-path="url(#clip0_22_74)">
<path d="M24 0H88C101.255 0 112 10.7452 112 24V88C112 101.255 101.255 112 88 112H24C10.7452 112 0 101.255 0 88V24C0 10.7452 10.7452 0 24 0Z" fill="url(#paint0_linear_22_74)"/>
<path d="M70 56H85.8182" stroke="white" stroke-width="6" stroke-linecap="round"/>
<path d="M97.0003 56.9102C97.7813 56.5547 97.7813 55.4453 97.0003 55.0898L87.2324 50.6437C86.5702 50.3423 85.8181 50.8264 85.8181 51.5539V60.4461C85.8181 61.1736 86.5702 61.6577 87.2324 61.3563L97.0003 56.9102Z" fill="white"/>
<path d="M63 68.1244L70.9091 81.8233" stroke="white" stroke-width="6" stroke-linecap="round"/>
<path d="M75.7121 91.9626C76.4104 92.4612 77.3711 91.9065 77.2885 91.0524L76.255 80.37C76.1849 79.6459 75.3897 79.2366 74.7596 79.6003L67.0587 84.0464C66.4287 84.4102 66.3856 85.3036 66.9776 85.7263L75.7121 91.9626Z" fill="white"/>
<path d="M49 68.1244L41.0909 81.8233" stroke="white" stroke-width="6" stroke-linecap="round"/>
<path d="M34.7115 91.0524C34.6289 91.9065 35.5896 92.4612 36.288 91.9626L45.0224 85.7263C45.6145 85.3036 45.5714 84.4102 44.9413 84.0464L37.2404 79.6003C36.6104 79.2366 35.8151 79.6459 35.7451 80.37L34.7115 91.0524Z" fill="white"/>
<path d="M42 56H26.1818" stroke="white" stroke-width="6" stroke-linecap="round"/>
<path d="M14.9997 55.0898C14.2187 55.4453 14.2187 56.5547 14.9997 56.9102L24.7676 61.3563C25.4298 61.6577 26.1819 61.1736 26.1819 60.4461V51.5539C26.1819 50.8264 25.4298 50.3423 24.7676 50.6437L14.9997 55.0898Z" fill="white"/>
<path d="M49 43.8756L41.0909 30.1767" stroke="white" stroke-width="6" stroke-linecap="round"/>
<path d="M36.2879 20.0374C35.5896 19.5388 34.6289 20.0935 34.7115 20.9476L35.745 31.63C35.8151 32.3541 36.6103 32.7634 37.2404 32.3997L44.9413 27.9536C45.5713 27.5898 45.6144 26.6964 45.0224 26.2737L36.2879 20.0374Z" fill="white"/>
<path d="M63 43.8756L70.9091 30.1767" stroke="white" stroke-width="6" stroke-linecap="round"/>
<path d="M77.2885 20.9476C77.3711 20.0935 76.4104 19.5388 75.712 20.0374L66.9776 26.2737C66.3855 26.6964 66.4286 27.5898 67.0587 27.9536L74.7596 32.3997C75.3896 32.7634 76.1849 32.3541 76.2549 31.63L77.2885 20.9476Z" fill="white"/>
<path d="M56 70C63.732 70 70 63.732 70 56C70 48.268 63.732 42 56 42C48.268 42 42 48.268 42 56C42 63.732 48.268 70 56 70Z" fill="white"/>
</g>
<defs>
<linearGradient id="paint0_linear_22_74" x1="0" y1="0" x2="112" y2="112" gradientUnits="userSpaceOnUse">
<stop stop-color="#3D2830"/>
<stop offset="0.25" stop-color="#6E4A57"/>
<stop offset="0.6" stop-color="#9B6B7A"/>
<stop offset="0.9" stop-color="#D4AEBA"/>
<stop offset="1" stop-color="#F5EFF1"/>
</linearGradient>
<clipPath id="clip0_22_74">
<rect width="112" height="112" fill="white"/>
</clipPath>
</defs>
</svg>
