<svg width="112" height="112" viewBox="0 0 112 112" fill="none" xmlns="http://www.w3.org/2000/svg">
<g clip-path="url(#clip0_77_207)">
<mask id="mask0_77_207" style="mask-type:luminance" maskUnits="userSpaceOnUse" x="0" y="0" width="112" height="112">
<path d="M112 0H0V112H112V0Z" fill="white"/>
</mask>
<g mask="url(#mask0_77_207)">
<path d="M24 0H88C101.255 0 112 10.7452 112 24V88C112 101.255 101.255 112 88 112H24C10.7452 112 0 101.255 0 88V24C0 10.7452 10.7452 0 24 0Z" fill="url(#paint0_linear_77_207)"/>
<path d="M56 97C78.6437 97 97 78.6437 97 56C97 33.3563 78.6437 15 56 15C33.3563 15 15 33.3563 15 56C15 78.6437 33.3563 97 56 97Z" stroke="white" stroke-width="5.5"/>
<path d="M80 32L84 28" stroke="white" stroke-opacity="0.65" stroke-width="2" stroke-linecap="round"/>
<path d="M80 80L84 84" stroke="white" stroke-opacity="0.65" stroke-width="2" stroke-linecap="round"/>
<path d="M32 80L28 84" stroke="white" stroke-opacity="0.65" stroke-width="2" stroke-linecap="round"/>
<path d="M32 32L28 28" stroke="white" stroke-opacity="0.65" stroke-width="2" stroke-linecap="round"/>
<path d="M56 86L48 64L56 56L64 64L56 86Z" fill="white" fill-opacity="0.35"/>
<path d="M26 56L48 64L56 56L48 48L26 56Z" fill="white" fill-opacity="0.35"/>
<path d="M86 56L64 48L56 56L64 64L86 56Z" fill="white" fill-opacity="0.35"/>
<path d="M56 26L64 48L56 56L48 48L56 26Z" fill="white" fill-opacity="0.95"/>
<path d="M56 59.5C57.933 59.5 59.5 57.933 59.5 56C59.5 54.067 57.933 52.5 56 52.5C54.067 52.5 52.5 54.067 52.5 56C52.5 57.933 54.067 59.5 56 59.5Z" fill="white"/>
</g>
</g>
<defs>
<linearGradient id="paint0_linear_77_207" x1="0" y1="0" x2="112" y2="112" gradientUnits="userSpaceOnUse">
<stop stop-color="#2C113C"/>
<stop offset="0.25" stop-color="#7D29AE"/>
<stop offset="0.6" stop-color="#B422B4"/>
<stop offset="1" stop-color="#B81E80"/>
</linearGradient>
<clipPath id="clip0_77_207">
<rect width="112" height="112" fill="white"/>
</clipPath>
</defs>
</svg>
