<svg width="112" height="112" viewBox="0 0 112 112" fill="none" xmlns="http://www.w3.org/2000/svg">
<g clip-path="url(#clip0_77_260)">
<mask id="mask0_77_260" style="mask-type:luminance" maskUnits="userSpaceOnUse" x="0" y="0" width="112" height="112">
<path d="M112 0H0V112H112V0Z" fill="white"/>
</mask>
<g mask="url(#mask0_77_260)">
<path d="M24 0H88C101.255 0 112 10.7452 112 24V88C112 101.255 101.255 112 88 112H24C10.7452 112 0 101.255 0 88V24C0 10.7452 10.7452 0 24 0Z" fill="url(#paint0_linear_77_260)"/>
<path d="M56 23L91 88H21L56 23Z" fill="white" fill-opacity="0.15" stroke="white" stroke-width="6.5" stroke-linejoin="round"/>
<path d="M56 28V49" stroke="white" stroke-width="5" stroke-linecap="round"/>
<path d="M86 84L69 73" stroke="white" stroke-width="5" stroke-linecap="round"/>
<path d="M26 84L43 73" stroke="white" stroke-width="5" stroke-linecap="round"/>
<path d="M56 26.5C59.5899 26.5 62.5 23.5899 62.5 20C62.5 16.4101 59.5899 13.5 56 13.5C52.4101 13.5 49.5 16.4101 49.5 20C49.5 23.5899 52.4101 26.5 56 26.5Z" fill="white"/>
<path d="M94 97.5C97.5899 97.5 100.5 94.5899 100.5 91C100.5 87.4101 97.5899 84.5 94 84.5C90.4101 84.5 87.5 87.4101 87.5 91C87.5 94.5899 90.4101 97.5 94 97.5Z" fill="white"/>
<path d="M18 97.5C21.5899 97.5 24.5 94.5899 24.5 91C24.5 87.4101 21.5899 84.5 18 84.5C14.4101 84.5 11.5 87.4101 11.5 91C11.5 94.5899 14.4101 97.5 18 97.5Z" fill="white"/>
<path d="M53.175 61.825C52.3917 61.0417 52 60.1 52 59C52 57.9 52.3917 56.9583 53.175 56.175C53.9583 55.3917 54.9 55 56 55C57.1 55 58.0417 55.3917 58.825 56.175C59.6083 56.9583 60 57.9 60 59C60 60.1 59.6083 61.0417 58.825 61.825C58.0417 62.6083 57.1 63 56 63C54.9 63 53.9583 62.6083 53.175 61.825ZM48 69V68.2C48 67.6333 48.146 67.1127 48.438 66.638C48.73 66.1633 49.1173 65.8007 49.6 65.55C50.6333 65.0333 51.6833 64.646 52.75 64.388C53.8167 64.13 54.9 64.0007 56 64C57.1 63.9993 58.1833 64.1287 59.25 64.388C60.3167 64.6473 61.3667 65.0347 62.4 65.55C62.8833 65.8 63.271 66.1627 63.563 66.638C63.855 67.1133 64.0007 67.634 64 68.2V69C64 69.55 63.8043 70.021 63.413 70.413C63.0217 70.805 62.5507 71.0007 62 71H50C49.45 71 48.9793 70.8043 48.588 70.413C48.1967 70.0217 48.0007 69.5507 48 69Z" fill="white"/>
</g>
</g>
<defs>
<linearGradient id="paint0_linear_77_260" x1="0" y1="0" x2="112" y2="112" gradientUnits="userSpaceOnUse">
<stop stop-color="#0E3E28"/>
<stop offset="0.25" stop-color="#20B670"/>
<stop offset="0.6" stop-color="#15C199"/>
<stop offset="1" stop-color="#0DC9C9"/>
</linearGradient>
<clipPath id="clip0_77_260">
<rect width="112" height="112" fill="white"/>
</clipPath>
</defs>
</svg>
