<svg width="112" height="112" viewBox="0 0 112 112" fill="none" xmlns="http://www.w3.org/2000/svg">
<g clip-path="url(#clip0_77_247)">
<mask id="mask0_77_247" style="mask-type:luminance" maskUnits="userSpaceOnUse" x="0" y="0" width="112" height="112">
<path d="M112 0H0V112H112V0Z" fill="white"/>
</mask>
<g mask="url(#mask0_77_247)">
<path d="M24 0H88C101.255 0 112 10.7452 112 24V88C112 101.255 101.255 112 88 112H24C10.7452 112 0 101.255 0 88V24C0 10.7452 10.7452 0 24 0Z" fill="url(#paint0_linear_77_247)"/>
<path d="M18 56C30 32 42 24 56 24C70 24 82 32 94 56C82 80 70 88 56 88C42 88 30 80 18 56Z" fill="white" fill-opacity="0.15" stroke="white" stroke-width="6.5" stroke-linejoin="round"/>
<path d="M56 74C65.9411 74 74 65.9411 74 56C74 46.0589 65.9411 38 56 38C46.0589 38 38 46.0589 38 56C38 65.9411 46.0589 74 56 74Z" stroke="white" stroke-width="5.5"/>
<path d="M56 63C59.866 63 63 59.866 63 56C63 52.134 59.866 49 56 49C52.134 49 49 52.134 49 56C49 59.866 52.134 63 56 63Z" fill="white"/>
<path opacity="0.7" d="M56 13V21" stroke="white" stroke-width="4.5" stroke-linecap="round"/>
<path opacity="0.7" d="M56 91V99" stroke="white" stroke-width="4.5" stroke-linecap="round"/>
<path opacity="0.7" d="M8 56H16" stroke="white" stroke-width="4.5" stroke-linecap="round"/>
<path opacity="0.7" d="M96 56H104" stroke="white" stroke-width="4.5" stroke-linecap="round"/>
</g>
</g>
<defs>
<linearGradient id="paint0_linear_77_247" x1="0" y1="0" x2="112" y2="112" gradientUnits="userSpaceOnUse">
<stop stop-color="#0B1D42"/>
<stop offset="0.25" stop-color="#154FC1"/>
<stop offset="0.6" stop-color="#1A29B7"/>
<stop offset="1" stop-color="#3321AB"/>
</linearGradient>
<clipPath id="clip0_77_247">
<rect width="112" height="112" fill="white"/>
</clipPath>
</defs>
</svg>
